<svg id="mermaid-1684398921579" width="100%" xmlns="http://www.w3.org/2000/svg" xmlns:xlink="http://www.w3.org/1999/xlink" height="615" style="max-width: 1939.4832763671875px;" viewBox="-20 -20 1939.4832763671875 615"><style>#mermaid-1684398921579{font-family:"trebuchet ms",verdana,arial,sans-serif;font-size:16px;fill:#333;}#mermaid-1684398921579 .error-icon{fill:#552222;}#mermaid-1684398921579 .error-text{fill:#552222;stroke:#552222;}#mermaid-1684398921579 .edge-thickness-normal{stroke-width:2px;}#mermaid-1684398921579 .edge-thickness-thick{stroke-width:3.5px;}#mermaid-1684398921579 .edge-pattern-solid{stroke-dasharray:0;}#mermaid-1684398921579 .edge-pattern-dashed{stroke-dasharray:3;}#mermaid-1684398921579 .edge-pattern-dotted{stroke-dasharray:2;}#mermaid-1684398921579 .marker{fill:#333333;stroke:#333333;}#mermaid-1684398921579 .marker.cross{stroke:#333333;}#mermaid-1684398921579 svg{font-family:"trebuchet ms",verdana,arial,sans-serif;font-size:16px;}#mermaid-1684398921579 g.classGroup text{fill:#9370DB;fill:#131300;stroke:none;font-family:"trebuchet ms",verdana,arial,sans-serif;font-size:10px;}#mermaid-1684398921579 g.classGroup text .title{font-weight:bolder;}#mermaid-1684398921579 .classTitle{font-weight:bolder;}#mermaid-1684398921579 .node rect,#mermaid-1684398921579 .node circle,#mermaid-1684398921579 .node ellipse,#mermaid-1684398921579 .node polygon,#mermaid-1684398921579 .node path{fill:#ECECFF;stroke:#9370DB;stroke-width:1px;}#mermaid-1684398921579 .divider{stroke:#9370DB;stroke:1;}#mermaid-1684398921579 g.clickable{cursor:pointer;}#mermaid-1684398921579 g.classGroup rect{fill:#ECECFF;stroke:#9370DB;}#mermaid-1684398921579 g.classGroup line{stroke:#9370DB;stroke-width:1;}#mermaid-1684398921579 .classLabel .box{stroke:none;stroke-width:0;fill:#ECECFF;opacity:0.5;}#mermaid-1684398921579 .classLabel .label{fill:#9370DB;font-size:10px;}#mermaid-1684398921579 .relation{stroke:#333333;stroke-width:1;fill:none;}#mermaid-1684398921579 .dashed-line{stroke-dasharray:3;}#mermaid-1684398921579 #compositionStart,#mermaid-1684398921579 .composition{fill:#333333 !important;stroke:#333333 !important;stroke-width:1;}#mermaid-1684398921579 #compositionEnd,#mermaid-1684398921579 .composition{fill:#333333 !important;stroke:#333333 !important;stroke-width:1;}#mermaid-1684398921579 #dependencyStart,#mermaid-1684398921579 .dependency{fill:#333333 !important;stroke:#333333 !important;stroke-width:1;}#mermaid-1684398921579 #dependencyStart,#mermaid-1684398921579 .dependency{fill:#333333 !important;stroke:#333333 !important;stroke-width:1;}#mermaid-1684398921579 #extensionStart,#mermaid-1684398921579 .extension{fill:#333333 !important;stroke:#333333 !important;stroke-width:1;}#mermaid-1684398921579 #extensionEnd,#mermaid-1684398921579 .extension{fill:#333333 !important;stroke:#333333 !important;stroke-width:1;}#mermaid-1684398921579 #aggregationStart,#mermaid-1684398921579 .aggregation{fill:#ECECFF !important;stroke:#333333 !important;stroke-width:1;}#mermaid-1684398921579 #aggregationEnd,#mermaid-1684398921579 .aggregation{fill:#ECECFF !important;stroke:#333333 !important;stroke-width:1;}#mermaid-1684398921579 .edgeTerminals{font-size:11px;}#mermaid-1684398921579:root{--mermaid-font-family:"trebuchet ms",verdana,arial,sans-serif;}#mermaid-1684398921579 class{fill:apa;}</style><g/><defs><marker id="extensionStart" class="extension" refX="0" refY="7" markerWidth="190" markerHeight="240" orient="auto"><path d="M 1,7 L18,13 V 1 Z"/></marker></defs><defs><marker id="extensionEnd" refX="19" refY="7" markerWidth="20" markerHeight="28" orient="auto"><path d="M 1,1 V 13 L18,7 Z"/></marker></defs><defs><marker id="compositionStart" class="extension" refX="0" refY="7" markerWidth="190" markerHeight="240" orient="auto"><path d="M 18,7 L9,13 L1,7 L9,1 Z"/></marker></defs><defs><marker id="compositionEnd" refX="19" refY="7" markerWidth="20" markerHeight="28" orient="auto"><path d="M 18,7 L9,13 L1,7 L9,1 Z"/></marker></defs><defs><marker id="aggregationStart" class="extension" refX="0" refY="7" markerWidth="190" markerHeight="240" orient="auto"><path d="M 18,7 L9,13 L1,7 L9,1 Z"/></marker></defs><defs><marker id="aggregationEnd" refX="19" refY="7" markerWidth="20" markerHeight="28" orient="auto"><path d="M 18,7 L9,13 L1,7 L9,1 Z"/></marker></defs><defs><marker id="dependencyStart" class="extension" refX="0" refY="7" markerWidth="190" markerHeight="240" orient="auto"><path d="M 5,7 L9,13 L1,7 L9,1 Z"/></marker></defs><defs><marker id="dependencyEnd" refX="19" refY="7" markerWidth="20" markerHeight="28" orient="auto"><path d="M 18,7 L9,13 L14,7 L9,1 Z"/></marker></defs><g id="classid-SF_VREGS-184" class="classGroup" transform="translate(529.0333404541016,0 )"><rect x="0" y="0" width="63.349998474121094" height="33" class=" "/><text y="15" x="0"><tspan class="title" x="5">SF_VREGS</tspan></text><line x1="0" y1="23" y2="23" x2="63.349998474121094"/><text x="5" y="33" fill="white" class="classText"/><line x1="0" y1="28" y2="28" x2="63.349998474121094"/><text x="5" y="43" fill="white" class="classText"/></g><g id="classid-SENSOR_HUB_CONFIG-185" class="classGroup" transform="translate(0,188 )"><rect x="0" y="0" width="123.9000015258789" height="146" class=" "/><text y="15" x="0"><tspan class="title" x="5">SENSOR_HUB_CONFIG</tspan></text><line x1="0" y1="23" y2="23" x2="123.9000015258789"/><text x="5" y="33" fill="white" class="classText"><tspan x="5">+ucConfig</tspan><tspan x="5" dy="10">+ucPowerMode</tspan><tspan x="5" dy="10">+ucSensorListSz</tspan><tspan x="5" dy="10">+ucAccAxis</tspan><tspan x="5" dy="10">+ucGyroAxis</tspan><tspan x="5" dy="10">+ucCmpAxis</tspan><tspan x="5" dy="10">+ucIncAxis</tspan><tspan x="5" dy="10">+ucAccOdr</tspan><tspan x="5" dy="10">+ucGyroOdr</tspan><tspan x="5" dy="10">+ucCmpOdr</tspan><tspan x="5" dy="10">+ucIncOdr</tspan></text><line x1="0" y1="141" y2="141" x2="123.9000015258789"/><text x="5" y="156" fill="white" class="classText"/></g><g id="classid-SENSOR_LIST-186" class="classGroup" transform="translate(173.9000015258789,238 )"><rect x="0" y="0" width="84.78333282470703" height="46" class=" "/><text y="15" x="0"><tspan class="title" x="7.658332824707031">SENSOR_LIST</tspan></text><line x1="0" y1="23" y2="23" x2="84.78333282470703"/><text x="5" y="33" fill="white" class="classText"><tspan x="5">+ucSensorType</tspan></text><line x1="0" y1="41" y2="41" x2="84.78333282470703"/><text x="5" y="56" fill="white" class="classText"/></g><g id="classid-SENSIT_REGS-187" class="classGroup" transform="translate(308.68333435058594,193 )"><rect x="0" y="0" width="80.01667022705078" height="136" class=" "/><text y="15" x="0"><tspan class="title" x="5">SENSIT_REGS</tspan></text><line x1="0" y1="23" y2="23" x2="80.01667022705078"/><text x="5" y="33" fill="white" class="classText"><tspan x="5">+ucAcc</tspan><tspan x="5" dy="10">+ucGyro</tspan><tspan x="5" dy="10">+ucCmp</tspan><tspan x="5" dy="10">+ucInc</tspan><tspan x="5" dy="10">+ucBa</tspan><tspan x="5" dy="10">+ucAload</tspan><tspan x="5" dy="10">+ucRa</tspan><tspan x="5" dy="10">+ucRm</tspan><tspan x="5" dy="10">+ucRg</tspan><tspan x="5" dy="10">+ucRinc</tspan></text><line x1="0" y1="131" y2="131" x2="80.01667022705078"/><text x="5" y="146" fill="white" class="classText"/></g><g id="classid-DATA_RT_REGS-188" class="classGroup" transform="translate(438.7000045776367,193 )"><rect x="0" y="0" width="89.08333587646484" height="136" class=" "/><text y="15" x="0"><tspan class="title" x="5">DATA_RT_REGS</tspan></text><line x1="0" y1="23" y2="23" x2="89.08333587646484"/><text x="5" y="33" fill="white" class="classText"><tspan x="5">+ACRT</tspan><tspan x="5" dy="10">+GYRT</tspan><tspan x="5" dy="10">+CMRT</tspan><tspan x="5" dy="10">+INRT</tspan><tspan x="5" dy="10">+BART</tspan><tspan x="5" dy="10">+ALRT</tspan><tspan x="5" dy="10">+RART</tspan><tspan x="5" dy="10">+RMRT</tspan><tspan x="5" dy="10">+RGRT</tspan><tspan x="5" dy="10">+RINRT</tspan></text><line x1="0" y1="131" y2="131" x2="89.08333587646484"/><text x="5" y="146" fill="white" class="classText"/></g><g id="classid-DATA_REGS-189" class="classGroup" transform="translate(577.7833404541016,83 )"><rect x="0" y="0" width="86.41666412353516" height="356" class=" "/><text y="15" x="0"><tspan class="title" x="13.11666488647461">DATA_REGS</tspan></text><line x1="0" y1="23" y2="23" x2="86.41666412353516"/><text x="5" y="33" fill="white" class="classText"><tspan x="5">+ACXD</tspan><tspan x="5" dy="10">+ACYD</tspan><tspan x="5" dy="10">+ACZD</tspan><tspan x="5" dy="10">+RACXD</tspan><tspan x="5" dy="10">+RACYD</tspan><tspan x="5" dy="10">+RACZD</tspan><tspan x="5" dy="10">+GYXD</tspan><tspan x="5" dy="10">+GYYD</tspan><tspan x="5" dy="10">+GYZD</tspan><tspan x="5" dy="10">+RGYXD</tspan><tspan x="5" dy="10">+RGYYD</tspan><tspan x="5" dy="10">+RGYZD</tspan><tspan x="5" dy="10">+CMD</tspan><tspan x="5" dy="10">+MGFXD</tspan><tspan x="5" dy="10">+MGFYD</tspan><tspan x="5" dy="10">+MGFZD</tspan><tspan x="5" dy="10">+RMGXD</tspan><tspan x="5" dy="10">+RMGYD</tspan><tspan x="5" dy="10">+RMGZD</tspan><tspan x="5" dy="10">+ORXD</tspan><tspan x="5" dy="10">+ORYD</tspan><tspan x="5" dy="10">+ORZD</tspan><tspan x="5" dy="10">+ORWD</tspan><tspan x="5" dy="10">+INXD</tspan><tspan x="5" dy="10">+INYD</tspan><tspan x="5" dy="10">+INZD</tspan><tspan x="5" dy="10">+RES_VREG30</tspan><tspan x="5" dy="10">+RES_VREG31</tspan><tspan x="5" dy="10">+RES_VREG32</tspan><tspan x="5" dy="10">+RES_VREG33</tspan><tspan x="5" dy="10">+RES_VREG34</tspan><tspan x="5" dy="10">+RES_VREG35</tspan></text><line x1="0" y1="351" y2="351" x2="86.41666412353516"/><text x="5" y="366" fill="white" class="classText"/></g><g id="classid-IDS-190" class="classGroup" transform="translate(714.2000045776367,198 )"><rect x="0" y="0" width="69.78333282470703" height="126" class=" "/><text y="15" x="0"><tspan class="title" x="26.55833339691162">IDS</tspan></text><line x1="0" y1="23" y2="23" x2="69.78333282470703"/><text x="5" y="33" fill="white" class="classText"><tspan x="5">+PID</tspan><tspan x="5" dy="10">+VID</tspan><tspan x="5" dy="10">+DID</tspan><tspan x="5" dy="10">+PartNum</tspan><tspan x="5" dy="10">+ManufNum</tspan><tspan x="5" dy="10">+ManufDate</tspan><tspan x="5" dy="10">+ManufLot</tspan><tspan x="5" dy="10">+UIDL</tspan><tspan x="5" dy="10">+UIDH</tspan></text><line x1="0" y1="121" y2="121" x2="69.78333282470703"/><text x="5" y="136" fill="white" class="classText"/></g><g id="classid-EXPONENT-191" class="classGroup" transform="translate(833.9833374023438,244.5 )"><rect x="0" y="0" width="65" height="33" class=" "/><text y="15" x="0"><tspan class="title" x="5">EXPONENT</tspan></text><line x1="0" y1="23" y2="23" x2="65"/><text x="5" y="33" fill="white" class="classText"/><line x1="0" y1="28" y2="28" x2="65"/><text x="5" y="43" fill="white" class="classText"/></g><g id="classid-EXPONENTCS-192" class="classGroup" transform="translate(1202.625,244.5 )"><rect x="0" y="0" width="78.88333129882812" height="33" class=" "/><text y="15" x="0"><tspan class="title" x="5">EXPONENTCS</tspan></text><line x1="0" y1="23" y2="23" x2="78.88333129882812"/><text x="5" y="33" fill="white" class="classText"/><line x1="0" y1="28" y2="28" x2="78.88333129882812"/><text x="5" y="43" fill="white" class="classText"/></g><g id="classid-STATUS-193" class="classGroup" transform="translate(1615.833324432373,244.5 )"><rect x="0" y="0" width="48.516666412353516" height="33" class=" "/><text y="15" x="0"><tspan class="title" x="5">STATUS</tspan></text><line x1="0" y1="23" y2="23" x2="48.516666412353516"/><text x="5" y="33" fill="white" class="classText"/><line x1="0" y1="28" y2="28" x2="48.516666412353516"/><text x="5" y="43" fill="white" class="classText"/></g><g id="classid-EXPONENT1-194" class="classGroup" transform="translate(650.3500061035156,494 )"><rect x="0" y="0" width="70.56666564941406" height="76" class=" "/><text y="15" x="0"><tspan class="title" x="5">EXPONENT1</tspan></text><line x1="0" y1="23" y2="23" x2="70.56666564941406"/><text x="5" y="33" fill="white" class="classText"><tspan x="5">+expA</tspan><tspan x="5" dy="10">+expG</tspan><tspan x="5" dy="10">+expC</tspan><tspan x="5" dy="10">+expIN</tspan></text><line x1="0" y1="71" y2="71" x2="70.56666564941406"/><text x="5" y="86" fill="white" class="classText"/></g><g id="classid-EXPONENT2-195" class="classGroup" transform="translate(770.9166717529297,494 )"><rect x="0" y="0" width="70.56666564941406" height="76" class=" "/><text y="15" x="0"><tspan class="title" x="5">EXPONENT2</tspan></text><line x1="0" y1="23" y2="23" x2="70.56666564941406"/><text x="5" y="33" fill="white" class="classText"><tspan x="5">+expB</tspan><tspan x="5" dy="10">+expAload</tspan><tspan x="5" dy="10">+expRa</tspan><tspan x="5" dy="10">+expRm</tspan></text><line x1="0" y1="71" y2="71" x2="70.56666564941406"/><text x="5" y="86" fill="white" class="classText"/></g><g id="classid-EXPONENT3-196" class="classGroup" transform="translate(891.4833374023438,504 )"><rect x="0" y="0" width="70.56666564941406" height="56" class=" "/><text y="15" x="0"><tspan class="title" x="5">EXPONENT3</tspan></text><line x1="0" y1="23" y2="23" x2="70.56666564941406"/><text x="5" y="33" fill="white" class="classText"><tspan x="5">+expRG</tspan><tspan x="5" dy="10">+expRinc</tspan></text><line x1="0" y1="51" y2="51" x2="70.56666564941406"/><text x="5" y="66" fill="white" class="classText"/></g><g id="classid-EXPONENTCS1-197" class="classGroup" transform="translate(1012.0500030517578,494 )"><rect x="0" y="0" width="84.44999694824219" height="76" class=" "/><text y="15" x="0"><tspan class="title" x="5">EXPONENTCS1</tspan></text><line x1="0" y1="23" y2="23" x2="84.44999694824219"/><text x="5" y="33" fill="white" class="classText"><tspan x="5">+expCSA</tspan><tspan x="5" dy="10">+expCSG</tspan><tspan x="5" dy="10">+expCSC</tspan><tspan x="5" dy="10">+expCSIN</tspan></text><line x1="0" y1="71" y2="71" x2="84.44999694824219"/><text x="5" y="86" fill="white" class="classText"/></g><g id="classid-EXPONENTCS2-198" class="classGroup" transform="translate(1146.5,494 )"><rect x="0" y="0" width="84.44999694824219" height="76" class=" "/><text y="15" x="0"><tspan class="title" x="5">EXPONENTCS2</tspan></text><line x1="0" y1="23" y2="23" x2="84.44999694824219"/><text x="5" y="33" fill="white" class="classText"><tspan x="5">+expCSB</tspan><tspan x="5" dy="10">+expCSAload</tspan><tspan x="5" dy="10">+expCSRa</tspan><tspan x="5" dy="10">+expCSRm</tspan></text><line x1="0" y1="71" y2="71" x2="84.44999694824219"/><text x="5" y="86" fill="white" class="classText"/></g><g id="classid-EXPONENTCS3-199" class="classGroup" transform="translate(1280.9499969482422,504 )"><rect x="0" y="0" width="84.44999694824219" height="56" class=" "/><text y="15" x="0"><tspan class="title" x="5">EXPONENTCS3</tspan></text><line x1="0" y1="23" y2="23" x2="84.44999694824219"/><text x="5" y="33" fill="white" class="classText"><tspan x="5">+expCSRG</tspan><tspan x="5" dy="10">+expCSRinc</tspan></text><line x1="0" y1="51" y2="51" x2="84.44999694824219"/><text x="5" y="66" fill="white" class="classText"/></g><g id="classid-STATUS1-200" class="classGroup" transform="translate(1415.3999938964844,494 )"><rect x="0" y="0" width="70.88333511352539" height="76" class=" "/><text y="15" x="0"><tspan class="title" x="13.399999618530273">STATUS1</tspan></text><line x1="0" y1="23" y2="23" x2="70.88333129882812"/><text x="5" y="33" fill="white" class="classText"><tspan x="5">+Accstatus</tspan><tspan x="5" dy="10">+GyroStatus</tspan><tspan x="5" dy="10">+MagStatus</tspan><tspan x="5" dy="10">+IncStatus</tspan></text><line x1="0" y1="71" y2="71" x2="70.88333129882812"/><text x="5" y="86" fill="white" class="classText"/></g><g id="classid-STATUS2-201" class="classGroup" transform="translate(1536.2833251953125,494 )"><rect x="0" y="0" width="74.78333282470703" height="76" class=" "/><text y="15" x="0"><tspan class="title" x="15.350000381469727">STATUS2</tspan></text><line x1="0" y1="23" y2="23" x2="74.78333282470703"/><text x="5" y="33" fill="white" class="classText"><tspan x="5">+BaStatus</tspan><tspan x="5" dy="10">+AloadStatus</tspan><tspan x="5" dy="10">+RaStatus</tspan><tspan x="5" dy="10">+RmStatus</tspan></text><line x1="0" y1="71" y2="71" x2="74.78333282470703"/><text x="5" y="86" fill="white" class="classText"/></g><g id="classid-STATUS3-202" class="classGroup" transform="translate(1661.0666580200195,494 )"><rect x="0" y="0" width="90.88333129882812" height="76" class=" "/><text y="15" x="0"><tspan class="title" x="23.399999618530273">STATUS3</tspan></text><line x1="0" y1="23" y2="23" x2="90.88333129882812"/><text x="5" y="33" fill="white" class="classText"><tspan x="5">+RgStatus</tspan><tspan x="5" dy="10">+RincStatus</tspan><tspan x="5" dy="10">+RawAccStatus</tspan><tspan x="5" dy="10">+RawGyroStatus</tspan></text><line x1="0" y1="71" y2="71" x2="90.88333129882812"/><text x="5" y="86" fill="white" class="classText"/></g><g id="classid-STATUS4-203" class="classGroup" transform="translate(1801.9499893188477,489 )"><rect x="0" y="0" width="97.53333282470703" height="86" class=" "/><text y="15" x="0"><tspan class="title" x="26.725000381469727">STATUS4</tspan></text><line x1="0" y1="23" y2="23" x2="97.53333282470703"/><text x="5" y="33" fill="white" class="classText"><tspan x="5">+RawMagStatus</tspan><tspan x="5" dy="10">+InclCSData</tspan><tspan x="5" dy="10">+RawGyroCSData</tspan><tspan x="5" dy="10">+RawMagCSData</tspan><tspan x="5" dy="10">+SHStartStatus</tspan></text><line x1="0" y1="81" y2="81" x2="97.53333282470703"/><text x="5" y="96" fill="white" class="classText"/></g><path d="M529.0333404541016,19.135569905783946L451.1861171722412,25.61297492148662C373.33889389038086,32.0903799371893,217.64444732666016,45.04518996859465,139.7972240447998,73.18926165096399C61.95000076293945,101.33333333333333,61.95000076293945,144.66666666666666,61.95000076293945,166.33333333333334L61.95000076293945,188" id="edge129" class="relation"/><g class="classLabel"><rect class="box" x="209.58218383789062" y="31.457592010498047" width="42.266666412353516" height="18"/><text class="label" x="230.71551759999187" y="43.957590275506945" fill="red" text-anchor="middle">contains</text></g><path d="M529.0333404541016,20.316634257708028L476.90972836812335,26.59719521475669C424.7861162821452,32.87775617180535,320.5388921101888,45.43887808590267,268.41528002421063,81.71943904295134C216.29166793823242,118,216.29166793823242,178,216.29166793823242,208L216.29166793823242,238" id="edge130" class="relation"/><g class="classLabel"><rect class="box" x="262.17547607421875" y="37.424861907958984" width="42.266666412353516" height="18"/><text class="label" x="283.30881663189905" y="49.92486340271503" fill="red" text-anchor="middle">contains</text></g><path d="M529.0333404541016,22.700042982140452L498.9763952891032,28.58336915178371C468.9194501241048,34.46669532142697,408.8055597941081,46.233347660713484,378.7486146291097,74.61667383035673C348.6916694641113,103,348.6916694641113,148,348.6916694641113,170.5L348.6916694641113,193" id="edge131" class="relation"/><g class="classLabel"><rect class="box" x="351.48626708984375" y="40.81636428833008" width="42.266666412353516" height="18"/><text class="label" x="372.6195888780452" y="53.31636519611957" fill="red" text-anchor="middle">contains</text></g><path d="M529.9083394889371,33L522.1305616600924,37.166666666666664C514.3527838312478,41.333333333333336,498.7972281735585,49.666666666666664,491.0194503447138,76.33333333333333C483.24167251586914,103,483.24167251586914,148,483.24167251586914,170.5L483.24167251586914,193" id="edge132" class="relation"/><g class="classLabel"><rect class="box" x="462.10833740234375" y="86.52936553955078" width="42.266666412353516" height="18"/><text class="label" x="483.24167251586914" y="99.0293662411757" fill="red" text-anchor="middle">contains</text></g><path d="M584.6764117780938,33L590.7289552343897,37.166666666666664C596.7814986906856,41.333333333333336,608.8865856032774,49.666666666666664,614.9391290595732,58C620.9916725158691,66.33333333333333,620.9916725158691,74.66666666666667,620.9916725158691,78.83333333333333L620.9916725158691,83" id="edge133" class="relation"/><g class="classLabel"><rect class="box" x="591.996826171875" y="40.0880126953125" width="42.266666412353516" height="18"/><text class="label" x="613.1301621586094" y="52.5880119008191" fill="red" text-anchor="middle">contains</text></g><path d="M592.3833389282227,23.477859767501574L618.5013942718506,29.23154980625131C644.6194496154785,34.98523984500105,696.8555603027344,46.49261992250052,722.9736156463623,75.57964329458359C749.0916709899902,104.66666666666667,749.0916709899902,151.33333333333334,749.0916709899902,174.66666666666666L749.0916709899902,198" id="edge134" class="relation"/><g class="classLabel"><rect class="box" x="717.9650268554688" y="43.29852294921875" width="42.266666412353516" height="18"/><text class="label" x="739.0983759515246" y="55.79852208134881" fill="red" text-anchor="middle">contains</text></g><path d="M592.3833389282227,20.79895340749746L638.0666720072428,26.999127839581217C683.7500050862631,33.199302271664976,775.1166712443033,45.59965113583249,820.8000043233236,82.88315890124959C866.4833374023438,120.16666666666667,866.4833374023438,182.33333333333334,866.4833374023438,213.41666666666666L866.4833374023438,244.5" id="edge135" class="relation"/><g class="classLabel"><rect class="box" x="800.7028198242188" y="39.44045639038086" width="42.266666412353516" height="18"/><text class="label" x="821.8361861499178" y="51.94045690182366" fill="red" text-anchor="middle">contains</text></g><path d="M592.3833389282227,18.429252814940366L700.6638933817545,25.024377345783638C808.9444478352865,31.619501876626913,1025.5055567423503,44.80975093831345,1133.786111195882,82.48820880249006C1242.066665649414,120.16666666666667,1242.066665649414,182.33333333333334,1242.066665649414,213.41666666666666L1242.066665649414,244.5" id="edge136" class="relation"/><g class="classLabel"><rect class="box" x="989.1691284179688" y="31.383766174316406" width="42.266666412353516" height="18"/><text class="label" x="1010.302514796065" y="43.883767917729514" fill="red" text-anchor="middle">contains</text></g><path d="M592.3833389282227,17.717836561378174L767.0013920466105,24.431530467815147C941.6194451649984,31.14522437425212,1290.8555514017742,44.572612187126055,1465.4736045201619,82.36963942689636C1640.0916576385498,120.16666666666667,1640.0916576385498,182.33333333333334,1640.0916576385498,213.41666666666666L1640.0916576385498,244.5" id="edge137" class="relation"/><g class="classLabel"><rect class="box" x="1188.285400390625" y="28.94153594970703" width="42.266666412353516" height="18"/><text class="label" x="1209.4186516881523" y="41.44153606067434" fill="red" text-anchor="middle">contains</text></g><path d="M851.7837069844965,277.5L824.0919789751175,308.5833333333333C796.4002509657385,339.6666666666667,741.0167949469806,401.8333333333333,713.3250669376016,437.9166666666667C685.6333389282227,474,685.6333389282227,484,685.6333389282227,489L685.6333389282227,494" id="edge138" class="relation"/><g class="classLabel"><rect class="box" x="737.5972290039062" y="369.45001220703125" width="42.266666412353516" height="18"/><text class="label" x="758.7305721842652" y="381.95002224951634" fill="red" text-anchor="middle">contains</text></g><path d="M861.5834605963946,277.5L852.3528845932683,308.5833333333333C843.122308590142,339.6666666666667,824.6611565838894,401.8333333333333,815.430580580763,437.9166666666667C806.2000045776367,474,806.2000045776367,484,806.2000045776367,489L806.2000045776367,494" id="edge139" class="relation"/><g class="classLabel"><rect class="box" x="808.4882202148438" y="372.6293640136719" width="42.266666412353516" height="18"/><text class="label" x="829.6216055483902" y="385.12936073245265" fill="red" text-anchor="middle">contains</text></g><path d="M871.3832142082929,277.5L880.6137902114192,308.5833333333333C889.8443662145455,339.6666666666667,908.3055182207981,401.8333333333333,917.5360942239245,439.5833333333333C926.7666702270508,477.3333333333333,926.7666702270508,490.6666666666667,926.7666702270508,497.3333333333333L926.7666702270508,504" id="edge140" class="relation"/><g class="classLabel"><rect class="box" x="883.6350708007812" y="377.4224853515625" width="42.266666412353516" height="18"/><text class="label" x="904.7684449358392" y="389.9224809766035" fill="red" text-anchor="middle">contains</text></g><path d="M1226.8028111763188,277.5L1198.0481762345787,308.5833333333333C1169.2935412928389,339.6666666666667,1111.7842714093588,401.8333333333333,1083.029636467619,437.9166666666667C1054.275001525879,474,1054.275001525879,484,1054.275001525879,489L1054.275001525879,494" id="edge141" class="relation"/><g class="classLabel"><rect class="box" x="1109.219482421875" y="369.26104736328125" width="42.266666412353516" height="18"/><text class="label" x="1130.352789529542" y="381.7610410088054" fill="red" text-anchor="middle">contains</text></g><path d="M1237.7310128987128,277.5L1229.5633438279476,308.5833333333333C1221.3956747571822,339.6666666666667,1205.0603366156517,401.8333333333333,1196.8926675448863,437.9166666666667C1188.724998474121,474,1188.724998474121,484,1188.724998474121,489L1188.724998474121,494" id="edge142" class="relation"/><g class="classLabel"><rect class="box" x="1188.2825927734375" y="372.75750732421875" width="42.266666412353516" height="18"/><text class="label" x="1209.4159123369877" y="385.2575133739465" fill="red" text-anchor="middle">contains</text></g><path d="M1248.659214621107,277.5L1261.0785114213163,308.5833333333333C1273.4978082215257,339.6666666666667,1298.3364018219445,401.8333333333333,1310.755698622154,439.5833333333333C1323.1749954223633,477.3333333333333,1323.1749954223633,490.6666666666667,1323.1749954223633,497.3333333333333L1323.1749954223633,504" id="edge143" class="relation"/><g class="classLabel"><rect class="box" x="1272.204345703125" y="376.8224182128906" width="42.266666412353516" height="18"/><text class="label" x="1293.3376879095163" y="389.3224244407015" fill="red" text-anchor="middle">contains</text></g><path d="M1624.709268631019,277.5L1595.7313337834992,308.5833333333333C1566.7533989359788,339.6666666666667,1508.7975292409385,401.8333333333333,1479.8195943934186,437.9166666666667C1450.8416595458984,474,1450.8416595458984,484,1450.8416595458984,489L1450.8416595458984,494" id="edge144" class="relation"/><g class="classLabel"><rect class="box" x="1506.4136962890625" y="369.2216796875" width="42.266666412353516" height="18"/><text class="label" x="1527.546950539332" y="381.7216685410805" fill="red" text-anchor="middle">contains</text></g><path d="M1634.6932586754483,277.5L1624.5235474974845,308.5833333333333C1614.353836319521,339.6666666666667,1594.0144139635934,401.8333333333333,1583.8447027856298,437.9166666666667C1573.674991607666,474,1573.674991607666,484,1573.674991607666,489L1573.674991607666,494" id="edge145" class="relation"/><g class="classLabel"><rect class="box" x="1578.386474609375" y="372.5063781738281" width="42.266666412353516" height="18"/><text class="label" x="1599.5197887538293" y="385.00636580837204" fill="red" text-anchor="middle">contains</text></g><path d="M1645.4900566016513,277.5L1655.659767779615,308.5833333333333C1665.8294789575787,339.6666666666667,1686.1689013135062,401.8333333333333,1696.3386124914698,437.9166666666667C1706.5083236694336,474,1706.5083236694336,484,1706.5083236694336,489L1706.5083236694336,494" id="edge146" class="relation"/><g class="classLabel"><rect class="box" x="1659.5302734375" y="372.5063781738281" width="42.266666412353516" height="18"/><text class="label" x="1680.6635265232703" y="385.00636580837204" fill="red" text-anchor="middle">contains</text></g><path d="M1657.2114234933713,277.5L1689.4622955330096,308.5833333333333C1721.713167572648,339.6666666666667,1786.2149116519247,401.8333333333333,1818.4657836915628,437.0833333333333C1850.7166557312012,472.3333333333333,1850.7166557312012,480.6666666666667,1850.7166557312012,484.8333333333333L1850.7166557312012,489" id="edge147" class="relation"/><g class="classLabel"><rect class="box" x="1741.8309326171875" y="366.9244079589844" width="42.266666412353516" height="18"/><text class="label" x="1762.9642853146652" y="379.42442086232904" fill="red" text-anchor="middle">contains</text></g></svg>